<svg id="visual" viewBox="0 0 1440 1024" width="1440" height="1024" xmlns="http://www.w3.org/2000/svg" xmlns:xlink="http://www.w3.org/1999/xlink" version="1.1"><path d="M0 753L34.3 744.5C68.7 736 137.3 719 205.8 696.2C274.3 673.3 342.7 644.7 411.2 647.2C479.7 649.7 548.3 683.3 617 693.2C685.7 703 754.3 689 823 690.7C891.7 692.3 960.3 709.7 1028.8 713.7C1097.3 717.7 1165.7 708.3 1234.2 701C1302.7 693.7 1371.3 688.3 1405.7 685.7L1440 683L1440 1025L1405.7 1025C1371.3 1025 1302.7 1025 1234.2 1025C1165.7 1025 1097.3 1025 1028.8 1025C960.3 1025 891.7 1025 823 1025C754.3 1025 685.7 1025 617 1025C548.3 1025 479.7 1025 411.2 1025C342.7 1025 274.3 1025 205.8 1025C137.3 1025 68.7 1025 34.3 1025L0 1025Z" fill="#1c1c1c"></path><path d="M0 718L34.3 712.2C68.7 706.3 137.3 694.7 205.8 706.5C274.3 718.3 342.7 753.7 411.2 771C479.7 788.3 548.3 787.7 617 787.5C685.7 787.3 754.3 787.7 823 775.7C891.7 763.7 960.3 739.3 1028.8 729.5C1097.3 719.7 1165.7 724.3 1234.2 735.2C1302.7 746 1371.3 763 1405.7 771.5L1440 780L1440 1025L1405.7 1025C1371.3 1025 1302.7 1025 1234.2 1025C1165.7 1025 1097.3 1025 1028.8 1025C960.3 1025 891.7 1025 823 1025C754.3 1025 685.7 1025 617 1025C548.3 1025 479.7 1025 411.2 1025C342.7 1025 274.3 1025 205.8 1025C137.3 1025 68.7 1025 34.3 1025L0 1025Z" fill="#383838"></path><path d="M0 819L34.3 818.5C68.7 818 137.3 817 205.8 819C274.3 821 342.7 826 411.2 818.5C479.7 811 548.3 791 617 785.8C685.7 780.7 754.3 790.3 823 791.3C891.7 792.3 960.3 784.7 1028.8 781.7C1097.3 778.7 1165.7 780.3 1234.2 782.2C1302.7 784 1371.3 786 1405.7 787L1440 788L1440 1025L1405.7 1025C1371.3 1025 1302.7 1025 1234.2 1025C1165.7 1025 1097.3 1025 1028.8 1025C960.3 1025 891.7 1025 823 1025C754.3 1025 685.7 1025 617 1025C548.3 1025 479.7 1025 411.2 1025C342.7 1025 274.3 1025 205.8 1025C137.3 1025 68.7 1025 34.3 1025L0 1025Z" fill="#575757"></path><path d="M0 852L34.3 853.8C68.7 855.7 137.3 859.3 205.8 857.7C274.3 856 342.7 849 411.2 849.5C479.7 850 548.3 858 617 865.3C685.7 872.7 754.3 879.3 823 875.8C891.7 872.3 960.3 858.7 1028.8 864.7C1097.3 870.7 1165.7 896.3 1234.2 900.3C1302.7 904.3 1371.3 886.7 1405.7 877.8L1440 869L1440 1025L1405.7 1025C1371.3 1025 1302.7 1025 1234.2 1025C1165.7 1025 1097.3 1025 1028.8 1025C960.3 1025 891.7 1025 823 1025C754.3 1025 685.7 1025 617 1025C548.3 1025 479.7 1025 411.2 1025C342.7 1025 274.3 1025 205.8 1025C137.3 1025 68.7 1025 34.3 1025L0 1025Z" fill="#787878"></path><path d="M0 944L34.3 948.2C68.7 952.3 137.3 960.7 205.8 965C274.3 969.3 342.7 969.7 411.2 961.8C479.7 954 548.3 938 617 932.2C685.7 926.3 754.3 930.7 823 939.8C891.7 949 960.3 963 1028.8 966.7C1097.3 970.3 1165.7 963.7 1234.2 953.7C1302.7 943.7 1371.3 930.3 1405.7 923.7L1440 917L1440 1025L1405.7 1025C1371.3 1025 1302.7 1025 1234.2 1025C1165.7 1025 1097.3 1025 1028.8 1025C960.3 1025 891.7 1025 823 1025C754.3 1025 685.7 1025 617 1025C548.3 1025 479.7 1025 411.2 1025C342.7 1025 274.3 1025 205.8 1025C137.3 1025 68.7 1025 34.3 1025L0 1025Z" fill="#9a9a9a"></path></svg>